<?xml version="1.0" encoding="utf-8"?>
<!-- Generator: Adobe Illustrator 16.0.4, SVG Export Plug-In . SVG Version: 6.00 Build 0)  -->
<!DOCTYPE svg PUBLIC "-//W3C//DTD SVG 1.1//EN" "http://www.w3.org/Graphics/SVG/1.1/DTD/svg11.dtd">
<svg version="1.1" id="gr_x5F_icon16_x5F_twigProfiler_1_"
	 xmlns="http://www.w3.org/2000/svg" xmlns:xlink="http://www.w3.org/1999/xlink" x="0px" y="0px" width="250px" height="250px"
	 viewBox="0 0 250 250" enable-background="new 0 0 250 250" xml:space="preserve">
<g id="gr_x5F_big_38_">
	<path id="gr_227_" fill="#F3BA48" d="M237.666,172.702c0,9.541-6.76,21.249-15.021,26.021l-82.625,47.698
		c-8.258,4.771-21.781,4.771-30.042,0l-82.621-47.698c-8.262-4.771-15.021-16.479-15.021-26.021V77.3
		c0-9.541,6.759-21.249,15.021-26.019l82.621-47.702c8.262-4.771,21.785-4.771,30.042,0l82.625,47.702
		c8.262,4.77,15.021,16.478,15.021,26.019V172.702z"/>
	<g>
		<path fill="#FFFFFF" d="M89.838,187.499h7.15c0,0,0-16.924,5.636-17.299c0,0-4.98-0.33-5.734,2.304c0,0-4.792-40.66-7.052-44.045
			c-2.253-3.381-2.253-3.381-2.253-3.381c2.253,3.381,4.262,40.985,3.383,43.993c0,0-4.137-7.271-7.143-9.526
			C83.826,159.545,91.345,170.575,89.838,187.499z"/>
		<path fill="#FFFFFF" d="M120.677,181.855h14.913c0,0-3.383-48.882,12.41-62.545c0,0-9.402,0.248-17.045,28.202
			c0,0,8.148-104.789,35.223-79.97c0,0-32.59-35.6-44.625,82.352c0,0-5.891-15.545-20.557-14.04
			C100.996,135.854,123.934,139.489,120.677,181.855z"/>
	</g>
</g>
</svg>
